<svg xmlns="http://www.w3.org/2000/svg" viewBox="0 0 512 512" width="512" height="512">
  <defs>
    <linearGradient id="bg" x1="0" y1="0" x2="1" y2="1">
      <stop offset="0" stop-color="#0F766E"/>
      <stop offset="1" stop-color="#013220"/>
    </linearGradient>
    <linearGradient id="gold" x1="0" y1="0" x2="0" y2="1">
      <stop offset="0" stop-color="#f0d77f"/>
      <stop offset="1" stop-color="#c9a227"/>
    </linearGradient>
  </defs>
  <rect width="512" height="512" rx="112" fill="url(#bg)"/>
  <!-- geometric pattern dots -->
  <g fill="#ffffff" opacity="0.06">
    <circle cx="96" cy="96" r="4"/><circle cx="160" cy="96" r="4"/><circle cx="416" cy="120" r="4"/>
    <circle cx="96" cy="416" r="4"/><circle cx="416" cy="416" r="4"/>
  </g>
  <g fill="url(#gold)">
    <!-- minarets -->
    <circle cx="150" cy="150" r="20"/>
    <rect x="138" y="168" width="24" height="210" rx="12"/>
    <circle cx="362" cy="150" r="20"/>
    <rect x="350" y="168" width="24" height="210" rx="12"/>
    <!-- main dome -->
    <path d="M256 120 C 320 120 350 175 350 230 L 162 230 C 162 175 192 120 256 120 Z"/>
    <rect x="251" y="92" width="10" height="34" rx="5"/>
    <circle cx="256" cy="86" r="10"/>
    <!-- prayer hall body -->
    <rect x="170" y="230" width="172" height="148" rx="10"/>
    <!-- arch door -->
    <path d="M256 300 C 232 300 222 318 222 340 L 222 378 L 290 378 L 290 340 C 290 318 280 300 256 300 Z" fill="#013220"/>
    <!-- base -->
    <rect x="120" y="378" width="272" height="34" rx="14"/>
  </g>
</svg>
